<?xml version="1.0" standalone="no"?>
<!DOCTYPE svg PUBLIC "-//W3C//DTD SVG 20010904//EN"
 "http://www.w3.org/TR/2001/REC-SVG-20010904/DTD/svg10.dtd">
<svg version="1.0" xmlns="http://www.w3.org/2000/svg"
 width="225.000000pt" height="225.000000pt" viewBox="0 0 225.000000 225.000000"
 preserveAspectRatio="xMidYMid meet">

<g transform="translate(0.000000,225.000000) scale(0.100000,-0.100000)"
fill="#000000" stroke="none">
<path d="M985 2239 c-201 -27 -396 -109 -551 -230 -573 -450 -573 -1318 1
-1768 383 -300 916 -316 1328 -40 85 58 234 209 293 299 176 265 233 593 157
899 -90 362 -380 674 -732 790 -151 49 -353 70 -496 50z m390 -88 c419 -105
734 -450 795 -870 17 -113 8 -313 -19 -413 -52 -198 -136 -344 -280 -488 -145
-144 -293 -230 -487 -281 -102 -27 -314 -37 -421 -19 -443 71 -794 411 -877
850 -20 105 -20 285 0 390 81 427 416 761 849 845 100 20 336 13 440 -14z"/>
<path d="M1100 1481 l0 -111 -35 0 c-40 0 -63 -28 -91 -112 l-16 -48 -166 0
c-154 -1 -170 -2 -212 -24 -26 -13 -58 -41 -75 -65 -27 -38 -30 -51 -30 -116
0 -65 3 -78 30 -116 17 -24 49 -52 75 -65 45 -23 47 -23 466 -24 l420 0 82 61
c70 52 82 65 82 90 0 22 5 29 20 29 25 0 25 -2 -1 -105 -24 -95 -20 -109 32
-120 45 -10 88 3 95 29 3 12 -4 59 -16 104 -16 66 -18 85 -8 101 9 15 9 23 -1
34 -9 12 -8 31 9 93 33 126 27 144 -50 144 -34 0 -52 -5 -65 -20 -17 -19 -17
-23 4 -104 26 -104 26 -106 1 -106 -15 0 -20 7 -20 28 0 22 -15 39 -79 90
l-79 62 -161 0 -161 0 0 73 c0 40 -4 77 -10 83 -5 5 -11 56 -12 113 -2 73 -7
106 -15 109 -10 3 -13 -23 -13 -107z m-235 -476 c0 -16 -8 -21 -44 -23 -48 -4
-67 8 -57 33 4 12 17 15 53 13 40 -3 48 -6 48 -23z m158 13 c9 -27 -6 -38 -48
-38 -45 0 -61 11 -51 35 7 19 92 21 99 3z m152 -13 c0 -16 -8 -21 -44 -23 -45
-3 -64 9 -54 35 4 10 19 13 52 11 38 -3 46 -6 46 -23z m159 9 c10 -26 -2 -34
-49 -34 -45 0 -61 11 -51 35 8 22 92 20 100 -1z"/>
</g>
</svg>
